# xmcd
# Copyright (C) 1995-1998 Ti Kan
#
# Track frame offsets:
#       180
#       15249
#       33977
#       49014
#       66460
#       83354
#       97362
#       111644
#       131292
#       141781
#       168173
#       183139
#       206258
#       222128
#       235645
#       246994
#       263912
#       281367
#       296970
#       306157
#
# Disc length: 4358 seconds
#
# Revision: 0
# Processed by: cddbd v1.5.1PL0 Copyright (c) Steve Scherf et al.
# Submitted via: CD-Transfer v1.0
#
DISCID=1c110414
DTITLE=Various Artist - 
DYEAR=96
DGENRE=
TTITLE0=Polo's Schmetterding    Heisse Summer
TTITLE1=Grauzone     Eisbär
TTITLE2=Starter      Mini Jupe
TTITLE3=Slapstick      Walkman für den C.I.A.
TTITLE4=Ex-Trem Normal      Es Plätzli a dr Sunne
TTITLE5=Never Blue      Summer in Town
TTITLE6=Micro Kids     Empty Streets
TTITLE7=Züri West    Hans Dampf
TTITLE8=Stop the Shoppers   Zafferlott
TTITLE9=Ugly Bluz on Taped     The Tourist
TTITLE10=Atomic Darmflora     Lippestift
TTITLE11=Phon Roll     North Pole
TTITLE12=Mod On     Treibsand
TTITLE13=Poison Rain    Zyt zum Gah
TTITLE14=Housi Wittlin       Polizei
TTITLE15=Central Services     Schade
TTITLE16=The Zoo       Too much Law
TTITLE17=Ex-Cuse     Princess
TTITLE18=B-Goes    Denise
TTITLE19=Stiller Has     Zwöi feissi Meitli
EXTD=
EXTT0=
EXTT1=
EXTT2=
EXTT3=
EXTT4=
EXTT5=
EXTT6=
EXTT7=
EXTT8=
EXTT9=
EXTT10=
EXTT11=
EXTT12=
EXTT13=
EXTT14=
EXTT15=
EXTT16=
EXTT17=
EXTT18=
EXTT19=
PLAYORDER=
